<?xml version="1.0" encoding="UTF-8" standalone="no"?>
<!DOCTYPE svg PUBLIC "-//W3C//DTD SVG 20010904//EN"
              "http://www.w3.org/TR/2001/REC-SVG-20010904/DTD/svg10.dtd">

<svg xmlns="http://www.w3.org/2000/svg"
     width="5in" height="5in"
     viewBox="0 0 1600 1600">
  <path id="Selection"
        fill="black" stroke="black" stroke-width="1"
        d="M 768.00,288.00
           C 768.00,288.00 832.00,288.00 832.00,288.00
             832.00,288.00 832.00,768.00 832.00,768.00
             832.00,768.00 1312.00,768.00 1312.00,768.00
             1312.00,768.00 1312.00,832.00 1312.00,832.00
             1312.00,832.00 832.00,832.00 832.00,832.00
             832.00,832.00 832.00,1312.00 832.00,1312.00
             832.00,1312.00 768.00,1312.00 768.00,1312.00
             768.00,1312.00 768.00,832.00 768.00,832.00
             768.00,832.00 288.00,832.00 288.00,832.00
             288.00,832.00 288.00,768.00 288.00,768.00
             288.00,768.00 768.00,768.00 768.00,768.00
             768.00,768.00 768.00,288.00 768.00,288.00 Z" />
</svg>
