<?xml version="1.0" encoding="UTF-8" standalone="no"?>
<!DOCTYPE svg PUBLIC "-//W3C//DTD SVG 20010904//EN"
              "http://www.w3.org/TR/2001/REC-SVG-20010904/DTD/svg10.dtd">

<svg xmlns="http://www.w3.org/2000/svg"
     width="4.16667in" height="4.16667in"
     viewBox="0 0 300 300">
  <path id="Selection #3"
        fill="black" stroke="black" stroke-width="1"
        d="M 220.00,217.00
           C 220.00,217.00 219.04,227.00 219.04,227.00
             219.04,227.00 219.04,243.00 219.04,243.00
             219.00,246.61 219.56,251.83 217.40,254.82
             213.93,259.62 203.47,262.99 198.00,265.28
             194.29,266.83 184.75,270.56 181.00,269.36
             177.71,268.31 165.57,256.08 162.00,252.83
             160.15,251.15 156.54,247.04 154.00,247.04
             151.39,247.04 147.79,251.24 146.00,253.00
             146.00,253.00 129.00,268.40 129.00,268.40
             124.75,270.90 119.27,268.44 115.00,267.00
             109.67,265.20 92.77,258.77 89.99,254.47
             88.76,252.56 89.00,249.24 89.00,247.00
             89.00,247.00 89.00,225.00 89.00,225.00
             88.96,222.86 89.04,220.23 87.40,218.60
             85.48,216.68 81.54,217.01 79.00,217.00
             79.00,217.00 60.00,217.00 60.00,217.00
             57.42,217.00 53.61,217.24 51.39,215.83
             49.25,214.47 47.28,210.28 46.11,208.00
             42.65,201.29 39.72,194.24 37.60,187.00
             36.51,183.32 35.40,180.55 37.60,177.00
             37.60,177.00 54.01,159.00 54.01,159.00
             55.91,157.03 59.62,154.10 58.80,151.00
             58.27,148.96 54.55,145.58 53.01,144.00
             53.01,144.00 41.84,131.91 41.84,131.91
             38.92,128.83 36.09,126.58 36.52,122.00
             37.12,115.61 42.79,102.91 45.75,97.00
             47.12,94.28 48.72,90.56 51.21,88.74
             53.81,86.84 56.95,87.02 60.00,87.00
             60.00,87.00 80.00,87.00 80.00,87.00
             82.35,86.98 85.61,87.19 87.40,85.40
             89.32,83.48 88.99,79.54 89.00,77.00
             89.00,77.00 89.00,56.00 89.00,56.00
             89.01,54.03 88.83,51.32 89.99,49.63
             91.09,48.04 95.21,45.85 97.00,44.86
             101.78,42.21 110.78,38.29 116.00,36.72
             119.14,35.77 124.95,33.81 128.00,35.11
             128.00,35.11 146.00,51.04 146.00,51.04
             147.60,52.57 150.96,56.26 153.00,56.80
             155.97,57.59 158.97,54.05 161.00,52.28
             161.00,52.28 180.00,35.06 180.00,35.06
             183.72,33.38 193.15,36.97 197.00,38.42
             201.95,40.29 215.50,45.84 217.98,50.18
             219.42,52.71 219.00,58.94 219.04,62.00
             219.04,62.00 219.04,75.99 219.04,75.99
             219.04,75.99 220.00,87.00 220.00,87.00
             220.00,87.00 246.00,87.00 246.00,87.00
             249.36,87.02 253.90,87.00 256.79,88.93
             260.56,91.46 266.40,105.34 268.00,110.00
             269.25,113.66 272.47,121.43 271.37,125.00
             270.09,129.13 258.42,140.57 255.00,144.00
             253.24,145.77 249.04,149.40 249.04,152.00
             249.04,154.60 253.24,158.23 255.00,160.00
             258.09,163.10 270.30,175.69 271.36,179.00
             272.43,182.34 269.07,191.53 267.77,195.00
             266.22,199.16 259.90,213.74 256.61,215.83
             254.53,217.15 251.39,216.99 249.00,217.00
             249.00,217.00 220.00,217.00 220.00,217.00 Z
           M 149.00,105.29
           C 138.00,107.12 126.98,111.74 119.30,120.09
             111.53,128.53 107.48,139.60 107.04,151.00
             105.93,179.65 131.87,202.38 160.00,198.71
             187.78,195.09 204.85,170.17 200.08,143.00
             198.33,133.05 192.78,122.96 184.99,116.47
             180.48,112.71 174.59,109.34 169.00,107.52
             162.85,105.51 155.43,104.68 149.00,105.29 Z" />
</svg>
