<?xml version="1.0" encoding="UTF-8" standalone="no"?>
<!DOCTYPE svg PUBLIC "-//W3C//DTD SVG 20010904//EN"
              "http://www.w3.org/TR/2001/REC-SVG-20010904/DTD/svg10.dtd">

<svg xmlns="http://www.w3.org/2000/svg"
     width="1in" height="1in"
     viewBox="0 0 300 300">
   <defs>
      <radialGradient id = "radial" cx = "10%" cy = "10%" r = "50%">
         <stop stop-color = "#0870ff" offset = "0%"/>
         <stop stop-color = "#0046ff" offset = "100%"/>
      </radialGradient>
      <!-- <linearGradient id="linear" x1="0%" y1="0%" x2="100%" y2="0%">
         <stop offset="0%"   stop-color="#0870ff"/>
         <stop offset="100%" stop-color="#0046ff"/>
      </linearGradient> -->
  </defs>
   <rect width="300" height="300" fill="url(#radial)"/>
  <path id="Selection"
        fill="white" stroke="white" stroke-width="1"
        d="M 55.00,57.00
           C 55.00,57.00 240.00,57.00 240.00,57.00
             240.00,57.00 240.00,83.00 240.00,83.00
             240.00,83.00 162.00,83.00 162.00,83.00
             162.00,83.00 162.00,275.00 162.00,275.00
             162.00,275.00 132.00,275.00 132.00,275.00
             132.00,275.00 132.00,83.00 132.00,83.00
             132.00,83.00 55.00,83.00 55.00,83.00
             55.00,83.00 55.00,57.00 55.00,57.00 Z" />
</svg>
